<mxfile host="app.diagrams.net" modified="2022-03-10T16:11:01.709Z" agent="5.0 (Windows NT 10.0; Win64; x64) AppleWebKit/537.36 (KHTML, like Gecko) Chrome/99.0.4844.51 Safari/537.36" etag="uNqx6MLO5kXnmBkxXC4t" version="17.1.0" type="github">
  <diagram id="C5RBs43oDa-KdzZeNtuy" name="Page-1">
    <mxGraphModel dx="2031" dy="1089" grid="1" gridSize="10" guides="1" tooltips="1" connect="1" arrows="1" fold="1" page="1" pageScale="1" pageWidth="827" pageHeight="1169" math="0" shadow="0">
      <root>
        <mxCell id="WIyWlLk6GJQsqaUBKTNV-0" />
        <mxCell id="WIyWlLk6GJQsqaUBKTNV-1" parent="WIyWlLk6GJQsqaUBKTNV-0" />
        <mxCell id="zkfFHV4jXpPFQw0GAbJ--0" value="ZohoModel" style="swimlane;fontStyle=3;align=center;verticalAlign=top;childLayout=stackLayout;horizontal=1;startSize=40;horizontalStack=0;resizeParent=1;resizeLast=0;collapsible=1;marginBottom=0;rounded=0;shadow=0;strokeWidth=1;fontSize=24;" parent="WIyWlLk6GJQsqaUBKTNV-1" vertex="1">
          <mxGeometry x="30" y="360" width="510" height="580" as="geometry">
            <mxRectangle x="230" y="140" width="160" height="26" as="alternateBounds" />
          </mxGeometry>
        </mxCell>
        <mxCell id="zkfFHV4jXpPFQw0GAbJ--2" value="Phone Number" style="text;align=left;verticalAlign=top;spacingLeft=4;spacingRight=4;overflow=hidden;rotatable=0;points=[[0,0.5],[1,0.5]];portConstraint=eastwest;rounded=0;shadow=0;html=0;fontSize=24;" parent="zkfFHV4jXpPFQw0GAbJ--0" vertex="1">
          <mxGeometry y="40" width="510" height="40" as="geometry" />
        </mxCell>
        <mxCell id="8FyPm2dT_h3c8Z8zYSIa-6" value="&lt;h1&gt;/zoho/get/accounts &lt;font style=&quot;font-size: 16px ; font-weight: normal&quot;&gt;(?type= [json] / csv)&lt;/font&gt;&lt;/h1&gt;&lt;p&gt;Retourne les comptes dans zoho, au format JSON par défaut, ou en CSV si précisé dans le paramètre &quot;type&quot; de la requète.&lt;/p&gt;" style="text;html=1;strokeColor=none;fillColor=none;spacing=5;spacingTop=-20;whiteSpace=wrap;overflow=hidden;rounded=0;" vertex="1" parent="WIyWlLk6GJQsqaUBKTNV-1">
          <mxGeometry x="80" y="60" width="460" height="120" as="geometry" />
        </mxCell>
        <mxCell id="8FyPm2dT_h3c8Z8zYSIa-7" value="&lt;h1&gt;/zoho/get/contacts&amp;nbsp;&lt;font style=&quot;font-size: 16px ; font-weight: normal&quot;&gt;(?type= [json] / csv)&lt;/font&gt;&lt;/h1&gt;&lt;p&gt;Retourne les contacts dans zoho, au format JSON par défaut, ou en CSV si précisé dans le paramètre &quot;type&quot; de la requète.&lt;br&gt;&lt;/p&gt;" style="text;html=1;strokeColor=none;fillColor=none;spacing=5;spacingTop=-20;whiteSpace=wrap;overflow=hidden;rounded=0;" vertex="1" parent="WIyWlLk6GJQsqaUBKTNV-1">
          <mxGeometry x="80" y="150" width="460" height="120" as="geometry" />
        </mxCell>
        <mxCell id="8FyPm2dT_h3c8Z8zYSIa-8" value="&lt;h1&gt;/zoho/get/potentials&amp;nbsp;&lt;font style=&quot;font-size: 16px ; font-weight: normal&quot;&gt;(?type= [json] / csv)&lt;/font&gt;&lt;/h1&gt;&lt;p&gt;Retourne les potentials dans zoho, au format JSON par défaut, ou en CSV si précisé dans le paramètre &quot;type&quot; de la requète.&lt;br&gt;&lt;/p&gt;" style="text;html=1;strokeColor=none;fillColor=none;spacing=5;spacingTop=-20;whiteSpace=wrap;overflow=hidden;rounded=0;" vertex="1" parent="WIyWlLk6GJQsqaUBKTNV-1">
          <mxGeometry x="80" y="240" width="460" height="120" as="geometry" />
        </mxCell>
        <mxCell id="8FyPm2dT_h3c8Z8zYSIa-10" value="&lt;h1&gt;/boond/get/projects&amp;nbsp;&lt;font style=&quot;font-size: 16px ; font-weight: normal&quot;&gt;(?company-name=&amp;lt;string&amp;gt;)&lt;/font&gt;&lt;/h1&gt;&lt;p&gt;Retourne une liste (Tableau JSON) de projets de l&#39;entreprise précisée. Si le paramètre &quot;company-name&quot; n&#39;est pas renseigné, il y a un message d&#39;erreur.&amp;nbsp;&lt;/p&gt;&lt;p&gt;Exemple de réponse :&lt;/p&gt;&lt;p&gt;&lt;br&gt;&lt;/p&gt;" style="text;html=1;strokeColor=none;fillColor=none;spacing=5;spacingTop=-20;whiteSpace=wrap;overflow=hidden;rounded=0;" vertex="1" parent="WIyWlLk6GJQsqaUBKTNV-1">
          <mxGeometry x="660" y="60" width="460" height="230" as="geometry" />
        </mxCell>
        <mxCell id="8FyPm2dT_h3c8Z8zYSIa-13" value="&lt;pre&gt;&lt;font style=&quot;font-size: 26px&quot;&gt;GET&lt;/font&gt;&lt;/pre&gt;" style="text;html=1;strokeColor=none;fillColor=none;align=center;verticalAlign=middle;whiteSpace=wrap;rounded=0;fontSize=16;" vertex="1" parent="WIyWlLk6GJQsqaUBKTNV-1">
          <mxGeometry x="11" y="64" width="60" height="30" as="geometry" />
        </mxCell>
        <mxCell id="8FyPm2dT_h3c8Z8zYSIa-14" value="&lt;pre&gt;&lt;font style=&quot;font-size: 26px&quot;&gt;GET&lt;/font&gt;&lt;/pre&gt;" style="text;html=1;strokeColor=none;fillColor=none;align=center;verticalAlign=middle;whiteSpace=wrap;rounded=0;fontSize=16;" vertex="1" parent="WIyWlLk6GJQsqaUBKTNV-1">
          <mxGeometry x="9" y="155" width="60" height="30" as="geometry" />
        </mxCell>
        <mxCell id="8FyPm2dT_h3c8Z8zYSIa-15" value="&lt;pre&gt;&lt;font style=&quot;font-size: 26px&quot;&gt;GET&lt;/font&gt;&lt;/pre&gt;" style="text;html=1;strokeColor=none;fillColor=none;align=center;verticalAlign=middle;whiteSpace=wrap;rounded=0;fontSize=16;" vertex="1" parent="WIyWlLk6GJQsqaUBKTNV-1">
          <mxGeometry x="10" y="243" width="60" height="30" as="geometry" />
        </mxCell>
        <mxCell id="8FyPm2dT_h3c8Z8zYSIa-16" value="&lt;pre&gt;&lt;font style=&quot;font-size: 26px&quot;&gt;GET&lt;/font&gt;&lt;/pre&gt;" style="text;html=1;strokeColor=none;fillColor=none;align=center;verticalAlign=middle;whiteSpace=wrap;rounded=0;fontSize=16;" vertex="1" parent="WIyWlLk6GJQsqaUBKTNV-1">
          <mxGeometry x="590" y="64" width="60" height="30" as="geometry" />
        </mxCell>
        <mxCell id="8FyPm2dT_h3c8Z8zYSIa-20" value="BoondModel" style="swimlane;fontStyle=3;align=center;verticalAlign=top;childLayout=stackLayout;horizontal=1;startSize=40;horizontalStack=0;resizeParent=1;resizeLast=0;collapsible=1;marginBottom=0;rounded=0;shadow=0;strokeWidth=1;fontSize=24;" vertex="1" parent="WIyWlLk6GJQsqaUBKTNV-1">
          <mxGeometry x="570" y="360" width="510" height="580" as="geometry">
            <mxRectangle x="230" y="140" width="160" height="26" as="alternateBounds" />
          </mxGeometry>
        </mxCell>
        <mxCell id="8FyPm2dT_h3c8Z8zYSIa-21" value="Phone Number" style="text;align=left;verticalAlign=top;spacingLeft=4;spacingRight=4;overflow=hidden;rotatable=0;points=[[0,0.5],[1,0.5]];portConstraint=eastwest;rounded=0;shadow=0;html=0;fontSize=24;" vertex="1" parent="8FyPm2dT_h3c8Z8zYSIa-20">
          <mxGeometry y="40" width="510" height="40" as="geometry" />
        </mxCell>
        <mxCell id="8FyPm2dT_h3c8Z8zYSIa-23" value="Phone Number" style="text;align=left;verticalAlign=top;spacingLeft=4;spacingRight=4;overflow=hidden;rotatable=0;points=[[0,0.5],[1,0.5]];portConstraint=eastwest;rounded=0;shadow=0;html=0;fontSize=24;" vertex="1" parent="8FyPm2dT_h3c8Z8zYSIa-20">
          <mxGeometry y="80" width="510" height="40" as="geometry" />
        </mxCell>
        <mxCell id="8FyPm2dT_h3c8Z8zYSIa-24" value="Phone Number" style="text;align=left;verticalAlign=top;spacingLeft=4;spacingRight=4;overflow=hidden;rotatable=0;points=[[0,0.5],[1,0.5]];portConstraint=eastwest;rounded=0;shadow=0;html=0;fontSize=24;" vertex="1" parent="8FyPm2dT_h3c8Z8zYSIa-20">
          <mxGeometry y="120" width="510" height="40" as="geometry" />
        </mxCell>
        <mxCell id="8FyPm2dT_h3c8Z8zYSIa-25" value="Phone Number" style="text;align=left;verticalAlign=top;spacingLeft=4;spacingRight=4;overflow=hidden;rotatable=0;points=[[0,0.5],[1,0.5]];portConstraint=eastwest;rounded=0;shadow=0;html=0;fontSize=24;" vertex="1" parent="8FyPm2dT_h3c8Z8zYSIa-20">
          <mxGeometry y="160" width="510" height="40" as="geometry" />
        </mxCell>
        <mxCell id="8FyPm2dT_h3c8Z8zYSIa-26" value="Phone Number" style="text;align=left;verticalAlign=top;spacingLeft=4;spacingRight=4;overflow=hidden;rotatable=0;points=[[0,0.5],[1,0.5]];portConstraint=eastwest;rounded=0;shadow=0;html=0;fontSize=24;" vertex="1" parent="8FyPm2dT_h3c8Z8zYSIa-20">
          <mxGeometry y="200" width="510" height="40" as="geometry" />
        </mxCell>
        <mxCell id="8FyPm2dT_h3c8Z8zYSIa-27" value="Phone Number" style="text;align=left;verticalAlign=top;spacingLeft=4;spacingRight=4;overflow=hidden;rotatable=0;points=[[0,0.5],[1,0.5]];portConstraint=eastwest;rounded=0;shadow=0;html=0;fontSize=24;" vertex="1" parent="8FyPm2dT_h3c8Z8zYSIa-20">
          <mxGeometry y="240" width="510" height="40" as="geometry" />
        </mxCell>
        <mxCell id="8FyPm2dT_h3c8Z8zYSIa-22" value="" style="group" vertex="1" connectable="0" parent="WIyWlLk6GJQsqaUBKTNV-1">
          <mxGeometry x="1110" y="30" width="580" height="1240" as="geometry" />
        </mxCell>
        <mxCell id="8FyPm2dT_h3c8Z8zYSIa-18" value="" style="rounded=1;whiteSpace=wrap;html=1;labelBackgroundColor=#B3B3B3;fontFamily=Courier New;fontSize=11;fontColor=#B3B3B3;labelBorderColor=default;fillColor=#333333;strokeColor=none;gradientColor=none;arcSize=1;" vertex="1" parent="8FyPm2dT_h3c8Z8zYSIa-22">
          <mxGeometry y="20" width="490" height="1220" as="geometry" />
        </mxCell>
        <mxCell id="8FyPm2dT_h3c8Z8zYSIa-17" value="&lt;pre&gt;&lt;font face=&quot;Courier New&quot; style=&quot;font-size: 11px ; line-height: 0.5&quot; color=&quot;#ffffff&quot;&gt;{&lt;br&gt;&amp;nbsp; &amp;nbsp; &amp;nbsp; &amp;nbsp; &quot;id_project&quot;: &quot;&quot;,&lt;br&gt;&amp;nbsp; &amp;nbsp; &amp;nbsp; &amp;nbsp; &quot;ref_project&quot;: &quot;&quot;,&lt;br&gt;&amp;nbsp; &amp;nbsp; &amp;nbsp; &amp;nbsp; &quot;prix_estime_HT&quot;: 5800,&lt;br&gt;&amp;nbsp; &amp;nbsp; &amp;nbsp; &amp;nbsp; &quot;orders_lies&quot;: [&lt;br&gt;&amp;nbsp; &amp;nbsp; &amp;nbsp; &amp;nbsp; &amp;nbsp; &amp;nbsp; {&lt;br&gt;&amp;nbsp; &amp;nbsp; &amp;nbsp; &amp;nbsp; &amp;nbsp; &amp;nbsp; &amp;nbsp; &amp;nbsp; &quot;id_order&quot;: String,&lt;br&gt;&amp;nbsp; &amp;nbsp; &amp;nbsp; &amp;nbsp; &amp;nbsp; &amp;nbsp; &amp;nbsp; &amp;nbsp; &quot;ref_order&quot;: String,&lt;br&gt;&amp;nbsp; &amp;nbsp; &amp;nbsp; &amp;nbsp; &amp;nbsp; &amp;nbsp; &amp;nbsp; &amp;nbsp; &quot;date_order&quot;: Date (Format : YYYY-MM-DD),&lt;br&gt;&amp;nbsp; &amp;nbsp; &amp;nbsp; &amp;nbsp; &amp;nbsp; &amp;nbsp; &amp;nbsp; &amp;nbsp; &quot;nom_order&quot;: String (Format : DEVIS_NOM_YYYYMMJJ),&lt;br&gt;&amp;nbsp; &amp;nbsp; &amp;nbsp; &amp;nbsp; &amp;nbsp; &amp;nbsp; &amp;nbsp; &amp;nbsp; &quot;prix_commande_HT&quot;: Integer,&lt;br&gt;&amp;nbsp; &amp;nbsp; &amp;nbsp; &amp;nbsp; &amp;nbsp; &amp;nbsp; &amp;nbsp; &amp;nbsp; &quot;prix_facture_HT&quot;: Integer,&lt;br&gt;&amp;nbsp; &amp;nbsp; &amp;nbsp; &amp;nbsp; &amp;nbsp; &amp;nbsp; &amp;nbsp; &amp;nbsp; &quot;etat&quot;: Integer,&lt;br&gt;&amp;nbsp; &amp;nbsp; &amp;nbsp; &amp;nbsp; &amp;nbsp; &amp;nbsp; &amp;nbsp; &amp;nbsp; &quot;ref_id_project&quot;: String,&lt;br&gt;&amp;nbsp; &amp;nbsp; &amp;nbsp; &amp;nbsp; &amp;nbsp; &amp;nbsp; &amp;nbsp; &amp;nbsp; &quot;factures_liees&quot;: [...&lt;br&gt;&amp;nbsp; &amp;nbsp; &amp;nbsp; &amp;nbsp; &amp;nbsp; &amp;nbsp; &amp;nbsp; &amp;nbsp; &amp;nbsp; &amp;nbsp; {&lt;br&gt;&amp;nbsp; &amp;nbsp; &amp;nbsp; &amp;nbsp; &amp;nbsp; &amp;nbsp; &amp;nbsp; &amp;nbsp; &amp;nbsp; &amp;nbsp; &amp;nbsp; &amp;nbsp; &quot;id_invoice&quot;: String,&lt;br&gt;&amp;nbsp; &amp;nbsp; &amp;nbsp; &amp;nbsp; &amp;nbsp; &amp;nbsp; &amp;nbsp; &amp;nbsp; &amp;nbsp; &amp;nbsp; &amp;nbsp; &amp;nbsp; &quot;date&quot;: Date (Format : YYYY-MM),&lt;br&gt;&amp;nbsp; &amp;nbsp; &amp;nbsp; &amp;nbsp; &amp;nbsp; &amp;nbsp; &amp;nbsp; &amp;nbsp; &amp;nbsp; &amp;nbsp; &amp;nbsp; &amp;nbsp; &quot;ref_id_order&quot;: String&lt;br&gt;&amp;nbsp; &amp;nbsp; &amp;nbsp; &amp;nbsp; &amp;nbsp; &amp;nbsp; &amp;nbsp; &amp;nbsp; &amp;nbsp; &amp;nbsp; }&lt;br&gt;&amp;nbsp; &amp;nbsp; &amp;nbsp; &amp;nbsp; &amp;nbsp; &amp;nbsp; &amp;nbsp; &amp;nbsp; ...]&lt;br&gt;&amp;nbsp; &amp;nbsp; &amp;nbsp; &amp;nbsp; &amp;nbsp; &amp;nbsp; }&lt;br&gt;&amp;nbsp; &amp;nbsp; &amp;nbsp; &amp;nbsp; ],&lt;br&gt;&amp;nbsp; &amp;nbsp; &amp;nbsp; &amp;nbsp; &quot;resources&quot;: [...&lt;br&gt;&amp;nbsp; &amp;nbsp; &amp;nbsp; &amp;nbsp; &amp;nbsp; &amp;nbsp; {&lt;br&gt;&amp;nbsp; &amp;nbsp; &amp;nbsp; &amp;nbsp; &amp;nbsp; &amp;nbsp; &amp;nbsp; &amp;nbsp; &quot;id_resource&quot;: String,&lt;br&gt;&amp;nbsp; &amp;nbsp; &amp;nbsp; &amp;nbsp; &amp;nbsp; &amp;nbsp; &amp;nbsp; &amp;nbsp; &quot;Prenom&quot;: String,&lt;br&gt;&amp;nbsp; &amp;nbsp; &amp;nbsp; &amp;nbsp; &amp;nbsp; &amp;nbsp; &amp;nbsp; &amp;nbsp; &quot;Nom&quot;: String,&lt;br&gt;&amp;nbsp; &amp;nbsp; &amp;nbsp; &amp;nbsp; &amp;nbsp; &amp;nbsp; &amp;nbsp; &amp;nbsp; &quot;nb_jours_facture&quot;: Integer,&lt;br&gt;&amp;nbsp; &amp;nbsp; &amp;nbsp; &amp;nbsp; &amp;nbsp; &amp;nbsp; &amp;nbsp; &amp;nbsp; &quot;TMJ&quot;: Integer,&lt;br&gt;&amp;nbsp; &amp;nbsp; &amp;nbsp; &amp;nbsp; &amp;nbsp; &amp;nbsp; &amp;nbsp; &amp;nbsp; &quot;CRA_details&quot;: [...&lt;br&gt;&amp;nbsp; &amp;nbsp; &amp;nbsp; &amp;nbsp; &amp;nbsp; &amp;nbsp; &amp;nbsp; &amp;nbsp; &amp;nbsp; &amp;nbsp; {&lt;br&gt;&amp;nbsp; &amp;nbsp; &amp;nbsp; &amp;nbsp; &amp;nbsp; &amp;nbsp; &amp;nbsp; &amp;nbsp; &amp;nbsp; &amp;nbsp; &amp;nbsp; &amp;nbsp; &quot;period&quot;: Date (Format : YYYY-MM),&lt;br&gt;&amp;nbsp; &amp;nbsp; &amp;nbsp; &amp;nbsp; &amp;nbsp; &amp;nbsp; &amp;nbsp; &amp;nbsp; &amp;nbsp; &amp;nbsp; &amp;nbsp; &amp;nbsp; &quot;&amp;lt;Id Projet&amp;gt;&quot;: Integer&lt;br&gt;&amp;nbsp; &amp;nbsp; &amp;nbsp; &amp;nbsp; &amp;nbsp; &amp;nbsp; &amp;nbsp; &amp;nbsp; &amp;nbsp; &amp;nbsp; }&lt;br&gt;&amp;nbsp; &amp;nbsp; &amp;nbsp; &amp;nbsp; &amp;nbsp; &amp;nbsp; &amp;nbsp; &amp;nbsp; ...]&lt;br&gt;&amp;nbsp; &amp;nbsp; &amp;nbsp; &amp;nbsp; &amp;nbsp; &amp;nbsp; }&lt;br&gt;&amp;nbsp; &amp;nbsp; ...]&lt;br&gt;}&lt;/font&gt;&lt;/pre&gt;" style="text;html=1;strokeColor=none;fillColor=none;spacing=5;spacingTop=-20;whiteSpace=wrap;overflow=hidden;rounded=0;fontSize=26;labelBackgroundColor=none;fontStyle=1" vertex="1" parent="8FyPm2dT_h3c8Z8zYSIa-22">
          <mxGeometry x="10" width="570" height="1240" as="geometry" />
        </mxCell>
      </root>
    </mxGraphModel>
  </diagram>
</mxfile>
